<?xml version="1.0" ?><svg height="57px" version="1.1" viewBox="0 0 60 57" width="60px" xmlns="http://www.w3.org/2000/svg" xmlns:xlink="http://www.w3.org/1999/xlink"><title/><desc/><defs/><g fill="none" fill-rule="evenodd" id="Page-1" stroke="none" stroke-width="1"><g fill-rule="nonzero" id="034---Light-House"><g id="Icons" transform="translate(16.000000, 1.000000)"><polygon fill="#FFFFFF" id="Shape" points="26.31 45 1.69 45 2.92 37 3.85 31 5.08 23 22.92 23 24.15 31 25.08 37"/><path d="M27.84,54.96 C27.6883819,54.9886231 27.534283,55.002023 27.38,55 C26.530725,54.9877529 25.7240439,54.6260125 25.15,54 C24.5783296,53.3707066 23.7701462,53.0082924 22.92,53 C22.070725,53.0122471 21.2640439,53.3739875 20.69,54 C20.1183296,54.6292934 19.3101462,54.9917076 18.46,55 C17.610725,54.9877529 16.8040439,54.6260125 16.23,54 C15.6634034,53.3637187 14.8519892,52.9997734 14,52.9997734 C13.1480108,52.9997734 12.3365966,53.3637187 11.77,54 C11.1959561,54.6260125 10.389275,54.9877529 9.54,55 C8.68985385,54.9917076 7.88167036,54.6292934 7.31,54 C6.73595612,53.3739875 5.92927503,53.0122471 5.08,53 C4.22985385,53.0082924 3.42167036,53.3707066 2.85,54 C2.27595612,54.6260125 1.46927503,54.9877529 0.62,55 C0.465717048,55.002023 0.311618078,54.9886231 0.16,54.96 L1.69,45 L26.31,45 L27.84,54.96 Z" fill="#FFACAD" id="Shape"/><rect fill="#735EFF" height="10" id="Rectangle-path" width="16" x="6" y="7"/><path d="M11,0 L17,0 C18.3260824,-1.11022302e-16 19.597852,0.526784202 20.5355339,1.46446609 C21.4732158,2.40214799 22,3.67391755 22,5 L22,7 L6,7 L6,5 C6,2.23857625 8.23857625,4.4408921e-16 11,0 Z" fill="#F96A59" id="Shape"/><polygon fill="#FFACAD" id="Shape" points="2.92 37 25.08 37 24.15 31 3.85 31"/><polygon fill="#F96A59" id="Shape" points="22 17 17 17 11 17 6 17 5.08 23 11 23 17 23 22.92 23"/><rect fill="#F96A59" height="6" id="Rectangle-path" width="6" x="11" y="17"/></g><g fill="#000000" id="Layer_10"><path d="M1.366,55.341 C1.84251532,54.8119351 2.51901035,54.5068775 3.231,54.5 C3.94298965,54.5068775 4.61948468,54.8119351 5.096,55.341 C5.77017056,56.0562993 6.70956614,56.4617951 7.6925,56.4617951 C8.67543386,56.4617951 9.61482944,56.0562993 10.289,55.341 C10.7703931,54.8221118 11.4461975,54.5272344 12.154,54.5272344 C12.8618025,54.5272344 13.5376069,54.8221118 14.019,55.341 C14.5540095,55.9217491 15.2665529,56.3086187 16.045,56.441 C16.059,56.441 16.07,56.453 16.084,56.455 C16.1059538,56.4570153 16.1280462,56.4570153 16.15,56.455 C16.3037028,56.4819068 16.4590648,56.4982782 16.615,56.504 C17.6057673,56.4989854 18.5489821,56.0785293 19.215,55.345 C19.6965471,54.8263865 20.3722942,54.5317044 21.08,54.5317044 C21.7877058,54.5317044 22.4634529,54.8263865 22.945,55.345 C23.6191706,56.0602993 24.5585661,56.4657951 25.5415,56.4657951 C26.5244339,56.4657951 27.4638294,56.0602993 28.138,55.345 C28.6193931,54.8261118 29.2951975,54.5312344 30.003,54.5312344 C30.7108025,54.5312344 31.3866069,54.8261118 31.868,55.345 C32.5337222,56.0789378 33.4771265,56.4994784 34.468,56.504 C35.4587673,56.4989854 36.4019821,56.0785293 37.068,55.345 C37.5495471,54.8263865 38.2252942,54.5317044 38.933,54.5317044 C39.6407058,54.5317044 40.3164529,54.8263865 40.798,55.345 C41.5447096,56.1364034 42.6148155,56.5389846 43.698,56.436 C43.830338,56.484414 43.9775062,56.4700651 44.098,56.397 C44.8264085,56.2554271 45.4914229,55.8872191 45.998,55.345 C46.4793931,54.8261118 47.1551975,54.5312344 47.863,54.5312344 C48.5708025,54.5312344 49.2466069,54.8261118 49.728,55.345 C50.3940179,56.0785293 51.3372327,56.4989854 52.328,56.504 C53.3188735,56.4994784 54.2622778,56.0789378 54.928,55.345 C55.4093931,54.8261118 56.0851975,54.5312344 56.793,54.5312344 C57.5008025,54.5312344 58.1766069,54.8261118 58.658,55.345 C58.8463291,55.5471362 59.1628638,55.558329 59.365,55.37 C59.5671362,55.1816709 59.5783291,54.8651362 59.39,54.663 C58.7159783,53.9474323 57.7765272,53.5417467 56.7935,53.5417467 C55.8104728,53.5417467 54.8710217,53.9474323 54.197,54.663 C53.724719,55.197861 53.0455303,55.5042095 52.332,55.5042095 C51.6184697,55.5042095 50.939281,55.197861 50.467,54.663 C49.7929783,53.9474323 48.8535272,53.5417467 47.8705,53.5417467 C46.8874728,53.5417467 45.9480217,53.9474323 45.274,54.663 C44.997581,54.9573824 44.6546866,55.1812924 44.274,55.316 L38.5,17.962 L38.5,6 C38.4966932,2.96380465 36.0361953,0.503306805 33,0.5 L27,0.5 C23.9638047,0.503306805 21.5033068,2.96380465 21.5,6 L21.5,17.962 L15.751,55.329 C15.3707355,55.1852342 15.0285967,54.9560013 14.751,54.659 C14.0769783,53.9434323 13.1375272,53.5377467 12.1545,53.5377467 C11.1714728,53.5377467 10.2320217,53.9434323 9.558,54.659 C9.07691559,55.1784386 8.40099627,55.4737076 7.693,55.4737076 C6.98500373,55.4737076 6.30908441,55.1784386 5.828,54.659 C5.16227781,53.9250622 4.21887346,53.5045216 3.228,53.5 C2.23723268,53.5050146 1.29401788,53.9254707 0.628,54.659 C0.50617242,54.7897592 0.463358302,54.9755799 0.515685311,55.1464653 C0.568012321,55.3173507 0.70753074,55.4473392 0.881685325,55.4874653 C1.05583991,55.5275915 1.23817244,55.4717592 1.36,55.341 L1.366,55.341 Z M36.327,54.659 C35.854719,55.193861 35.1755303,55.5002095 34.462,55.5002095 C33.7484697,55.5002095 33.069281,55.193861 32.597,54.659 C31.9225045,53.9439151 30.9830008,53.53859 30,53.53859 C29.0169992,53.53859 28.0774955,53.9439151 27.403,54.659 C26.9219156,55.1784386 26.2459963,55.4737076 25.538,55.4737076 C24.8300037,55.4737076 24.1540844,55.1784386 23.673,54.659 C22.9989783,53.9434323 22.0595272,53.5377467 21.0765,53.5377467 C20.0934728,53.5377467 19.1540217,53.9434323 18.48,54.659 C18.0305726,55.1524545 17.4054058,55.4497768 16.739,55.487 L18.121,46.5 L41.879,46.5 L43.257,55.46 C42.5955568,55.4311758 41.9718442,55.1439161 41.52,54.66 C40.8461161,53.9443024 39.9067431,53.5384359 38.9237159,53.5382466 C37.9406887,53.5380573 37.0011595,53.943562 36.327,54.659 Z M19.352,38.5 L40.652,38.5 L41.729,45.5 L18.275,45.5 L19.352,38.5 Z M20.275,32.5 L39.725,32.5 L40.494,37.5 L19.506,37.5 L20.275,32.5 Z M21.506,24.5 L38.494,24.5 L39.571,31.5 L20.429,31.5 L21.506,24.5 Z M27.5,23.5 L27.5,18.5 L32.5,18.5 L32.5,23.5 L27.5,23.5 Z M33.5,18.5 L37.571,18.5 L38.34,23.5 L33.5,23.5 L33.5,18.5 Z M37.5,17.5 L22.5,17.5 L22.5,8.5 L37.5,8.5 L37.5,17.5 Z M22.429,18.5 L26.5,18.5 L26.5,23.5 L21.66,23.5 L22.429,18.5 Z M22.5,6 C22.5027556,3.51586091 24.5158609,1.50275556 27,1.5 L33,1.5 C35.4841391,1.50275556 37.4972444,3.51586091 37.5,6 L37.5,7.5 L22.5,7.5 L22.5,6 Z" id="Shape"/><path d="M29,13.5 L31,13.5 C31.2761424,13.5 31.5,13.2761424 31.5,13 C31.5,12.7238576 31.2761424,12.5 31,12.5 L29,12.5 C28.7238576,12.5 28.5,12.7238576 28.5,13 C28.5,13.2761424 28.7238576,13.5 29,13.5 Z" id="Shape"/><path d="M17.224,9.553 L13.224,7.553 C12.9775268,7.43186713 12.6794876,7.53220088 12.5564491,7.77772843 C12.4334107,8.02325598 12.5314329,8.32206343 12.776,8.447 L16.776,10.447 C17.0224732,10.5681329 17.3205124,10.4677991 17.4435509,10.2222716 C17.5665893,9.97674402 17.4685671,9.67793657 17.224,9.553 Z" id="Shape"/><path d="M13,18.5 C13.0777724,18.4999948 13.1544714,18.4818473 13.224,18.447 L17.224,16.447 C17.3851458,16.3678025 17.4914524,16.2082793 17.502513,16.0290647 C17.5135736,15.8498501 17.4276896,15.6784655 17.2775052,15.5800537 C17.1273209,15.4816419 16.9358996,15.4713157 16.776,15.553 L12.776,17.553 C12.5687767,17.6568589 12.4601047,17.8895233 12.51346,18.1150924 C12.5668153,18.3406614 12.7682066,18.4999845 13,18.5 Z" id="Shape"/><path d="M14.5,13 C14.5,12.7238576 14.2761424,12.5 14,12.5 L10,12.5 C9.72385763,12.5 9.5,12.7238576 9.5,13 C9.5,13.2761424 9.72385763,13.5 10,13.5 L14,13.5 C14.2761424,13.5 14.5,13.2761424 14.5,13 Z" id="Shape"/><path d="M43,10.5 C43.0777724,10.4999948 43.1544714,10.4818473 43.224,10.447 L47.224,8.447 C47.3851458,8.36780254 47.4914524,8.2082793 47.502513,8.0290647 C47.5135736,7.84985011 47.4276896,7.67846545 47.2775052,7.58005366 C47.1273209,7.48164187 46.9358996,7.47131566 46.776,7.553 L42.776,9.553 C42.5687767,9.65685895 42.4601047,9.88952335 42.51346,10.1150924 C42.5668153,10.3406614 42.7682066,10.4999845 43,10.5 Z" id="Shape"/><path d="M42.776,16.447 L46.776,18.447 C47.0224732,18.5681329 47.3205124,18.4677991 47.4435509,18.2222716 C47.5665893,17.976744 47.4685671,17.6779366 47.224,17.553 L43.224,15.553 C42.9775268,15.4318671 42.6794876,15.5322009 42.5564491,15.7777284 C42.4334107,16.023256 42.5314329,16.3220634 42.776,16.447 Z" id="Shape"/><path d="M50.5,13 C50.5,12.7238576 50.2761424,12.5 50,12.5 L46,12.5 C45.7238576,12.5 45.5,12.7238576 45.5,13 C45.5,13.2761424 45.7238576,13.5 46,13.5 L50,13.5 C50.2761424,13.5 50.5,13.2761424 50.5,13 Z" id="Shape"/></g></g></g></svg>